HIERARCHY
ROOT Hips
{
	OFFSET 0.053599 88.859886 3.107447
	CHANNELS 6 Xposition Yposition Zposition Zrotation Yrotation Xrotation 
	JOINT Spine
	{
		OFFSET -0.000000 8.814246 -2.080107
		CHANNELS 3 Zrotation Yrotation Xrotation
		JOINT Spine1
		{
			OFFSET 0.000000 8.844141 0.000000
			CHANNELS 3 Zrotation Yrotation Xrotation
			JOINT Spine2
			{
				OFFSET -0.000000 11.682268 0.000000
				CHANNELS 3 Zrotation Yrotation Xrotation
				JOINT Spine3
				{
					OFFSET 0.000000 11.746700 0.000000
					CHANNELS 3 Zrotation Yrotation Xrotation
					JOINT Neck
					{
						OFFSET -0.000000 17.658264 -0.000000
						CHANNELS 3 Zrotation Yrotation Xrotation
						JOINT Neck1
						{
							OFFSET -0.000000 5.101515 -0.000000
							CHANNELS 3 Zrotation Yrotation Xrotation
							JOINT Head
							{
								OFFSET 0.000000 5.101515 0.000000
								CHANNELS 3 Zrotation Yrotation Xrotation
								JOINT HeadEnd
								{
									OFFSET 0.000000 11.655085 0.000000
									CHANNELS 3 Zrotation Yrotation Xrotation
									End Site
									{
										OFFSET 0.000000 0.000000 0.000000
									}
								}
							}
						}
					}
					JOINT RightShoulder
					{
						OFFSET -2.625389 11.175210 0.000000
						CHANNELS 3 Zrotation Yrotation Xrotation
						JOINT RightArm
						{
							OFFSET -0.000000 10.434715 -0.000000
							CHANNELS 3 Zrotation Yrotation Xrotation
							JOINT RightForeArm
							{
								OFFSET -0.000000 29.628420 0.000000
								CHANNELS 3 Zrotation Yrotation Xrotation
								JOINT RightHand
								{
									OFFSET -0.000000 22.857611 0.000000
									CHANNELS 3 Zrotation Yrotation Xrotation
									JOINT RightHandThumb1
									{
										OFFSET -2.867323 3.959563 2.944291
										CHANNELS 3 Zrotation Yrotation Xrotation
										JOINT RightHandThumb2
										{
											OFFSET 0.000000 3.350399 0.000000
											CHANNELS 3 Zrotation Yrotation Xrotation
											JOINT RightHandThumb3
											{
												OFFSET 0.000000 3.756509 -0.000000
												CHANNELS 3 Zrotation Yrotation Xrotation
												JOINT RightHandThumb4
												{
													OFFSET 0.000000 3.147345 0.000000
													CHANNELS 3 Zrotation Yrotation Xrotation
													End Site
													{
														OFFSET 0.000000 0.000000 0.000000
													}
												}
											}
										}
									}
									JOINT RightHandIndex1
									{
										OFFSET -0.086752 10.030893 2.345280
										CHANNELS 3 Zrotation Yrotation Xrotation
										JOINT RightHandIndex2
										{
											OFFSET -0.000000 4.061090 0.000000
											CHANNELS 3 Zrotation Yrotation Xrotation
											JOINT RightHandIndex3
											{
												OFFSET -0.000000 3.248873 0.000000
												CHANNELS 3 Zrotation Yrotation Xrotation
												JOINT RightHandIndex4
												{
													OFFSET 0.000000 2.639709 -0.000000
													CHANNELS 3 Zrotation Yrotation Xrotation
													End Site
													{
														OFFSET 0.000000 0.000000 0.000000
													}
												}
											}
										}
									}
									JOINT RightHandMiddle1
									{
										OFFSET 0.104102 9.502952 0.006768
										CHANNELS 3 Zrotation Yrotation Xrotation
										JOINT RightHandMiddle2
										{
											OFFSET 0.000000 4.568727 0.000000
											CHANNELS 3 Zrotation Yrotation Xrotation
											JOINT RightHandMiddle3
											{
												OFFSET 0.000000 3.654981 -0.000000
												CHANNELS 3 Zrotation Yrotation Xrotation
												JOINT RightHandMiddle4
												{
													OFFSET -0.000000 2.741236 -0.000000
													CHANNELS 3 Zrotation Yrotation Xrotation
													End Site
													{
														OFFSET 0.000000 0.000000 0.000000
													}
												}
											}
										}
									}
									JOINT RightHandRing1
									{
										OFFSET 0.086752 8.921708 -2.267442
										CHANNELS 3 Zrotation Yrotation Xrotation
										JOINT RightHandRing2
										{
											OFFSET -0.000000 4.061090 0.000000
											CHANNELS 3 Zrotation Yrotation Xrotation
											JOINT RightHandRing3
											{
												OFFSET 0.000000 3.654981 -0.000000
												CHANNELS 3 Zrotation Yrotation Xrotation
												JOINT RightHandRing4
												{
													OFFSET 0.000000 2.741236 -0.000000
													CHANNELS 3 Zrotation Yrotation Xrotation
													End Site
													{
														OFFSET 0.000000 0.000000 0.000000
													}
												}
											}
										}
									}
									JOINT RightHandPinky1
									{
										OFFSET -0.173504 7.976997 -4.467199
										CHANNELS 3 Zrotation Yrotation Xrotation
										JOINT RightHandPinky2
										{
											OFFSET 0.000000 3.350399 -0.000000
											CHANNELS 3 Zrotation Yrotation Xrotation
											JOINT RightHandPinky3
											{
												OFFSET -0.000000 2.842763 0.000000
												CHANNELS 3 Zrotation Yrotation Xrotation
												JOINT RightHandPinky4
												{
													OFFSET -0.000000 2.639709 0.000000
													CHANNELS 3 Zrotation Yrotation Xrotation
													End Site
													{
														OFFSET 0.000000 0.000000 0.000000
													}
												}
											}
										}
									}
									JOINT RightForeArmEnd
									{
										OFFSET 0.000000 0.000000 0.000000
										CHANNELS 3 Zrotation Yrotation Xrotation
										End Site
										{
											OFFSET 0.000000 0.000000 0.000000
										}
									}
								}
								JOINT RightArmEnd
								{
									OFFSET 0.000000 0.000000 0.000000
									CHANNELS 3 Zrotation Yrotation Xrotation
									End Site
									{
										OFFSET 0.000000 0.000000 0.000000
									}
								}
							}
						}
					}
					JOINT LeftShoulder
					{
						OFFSET 2.625389 11.175210 0.000000
						CHANNELS 3 Zrotation Yrotation Xrotation
						JOINT LeftArm
						{
							OFFSET 0.000000 10.813635 -0.000000
							CHANNELS 3 Zrotation Yrotation Xrotation
							JOINT LeftForeArm
							{
								OFFSET 0.000000 28.724781 0.000000
								CHANNELS 3 Zrotation Yrotation Xrotation
								JOINT LeftHand
								{
									OFFSET 0.644384 25.716167 -0.328871
									CHANNELS 3 Zrotation Yrotation Xrotation
									JOINT LeftHandThumb1
									{
										OFFSET 2.867323 3.959563 2.944291
										CHANNELS 3 Zrotation Yrotation Xrotation
										JOINT LeftHandThumb2
										{
											OFFSET 0.000000 3.350399 0.000000
											CHANNELS 3 Zrotation Yrotation Xrotation
											JOINT LeftHandThumb3
											{
												OFFSET -0.000000 3.756509 0.000000
												CHANNELS 3 Zrotation Yrotation Xrotation
												JOINT LeftHandThumb4
												{
													OFFSET -0.000000 3.100000 0.000000
													CHANNELS 3 Zrotation Yrotation Xrotation
													End Site
													{
														OFFSET 0.000000 0.000000 0.000000
													}
												}
											}
										}
									}
									JOINT LeftHandIndex1
									{
										OFFSET 0.086752 10.030893 2.345280
										CHANNELS 3 Zrotation Yrotation Xrotation
										JOINT LeftHandIndex2
										{
											OFFSET -0.000000 4.061090 -0.000000
											CHANNELS 3 Zrotation Yrotation Xrotation
											JOINT LeftHandIndex3
											{
												OFFSET 0.000000 3.248873 -0.000000
												CHANNELS 3 Zrotation Yrotation Xrotation
												JOINT LeftHandIndex4
												{
													OFFSET 0.000000 2.639709 -0.000000
													CHANNELS 3 Zrotation Yrotation Xrotation
													End Site
													{
														OFFSET 0.000000 0.000000 0.000000
													}
												}
											}
										}
									}
									JOINT LeftHandMiddle1
									{
										OFFSET -0.104102 9.502952 0.006768
										CHANNELS 3 Zrotation Yrotation Xrotation
										JOINT LeftHandMiddle2
										{
											OFFSET -0.000000 4.568727 -0.000000
											CHANNELS 3 Zrotation Yrotation Xrotation
											JOINT LeftHandMiddle3
											{
												OFFSET 0.000000 3.654981 0.000000
												CHANNELS 3 Zrotation Yrotation Xrotation
												JOINT LeftHandMiddle4
												{
													OFFSET 0.000000 2.741236 -0.000000
													CHANNELS 3 Zrotation Yrotation Xrotation
													End Site
													{
														OFFSET 0.000000 0.000000 0.000000
													}
												}
											}
										}
									}
									JOINT LeftHandRing1
									{
										OFFSET -0.086752 8.921708 -2.267442
										CHANNELS 3 Zrotation Yrotation Xrotation
										JOINT LeftHandRing2
										{
											OFFSET 0.000000 4.061090 0.000000
											CHANNELS 3 Zrotation Yrotation Xrotation
											JOINT LeftHandRing3
											{
												OFFSET 0.000000 3.654981 0.000000
												CHANNELS 3 Zrotation Yrotation Xrotation
												JOINT LeftHandRing4
												{
													OFFSET 0.000000 2.741236 0.000000
													CHANNELS 3 Zrotation Yrotation Xrotation
													End Site
													{
														OFFSET 0.000000 0.000000 0.000000
													}
												}
											}
										}
									}
									JOINT LeftHandPinky1
									{
										OFFSET 0.173504 7.976997 -4.467199
										CHANNELS 3 Zrotation Yrotation Xrotation
										JOINT LeftHandPinky2
										{
											OFFSET -0.000000 3.350399 -0.000000
											CHANNELS 3 Zrotation Yrotation Xrotation
											JOINT LeftHandPinky3
											{
												OFFSET 0.000000 2.842763 0.000000
												CHANNELS 3 Zrotation Yrotation Xrotation
												JOINT LeftHandPinky4
												{
													OFFSET -0.000000 2.639709 -0.000000
													CHANNELS 3 Zrotation Yrotation Xrotation
													End Site
													{
														OFFSET 0.000000 0.000000 0.000000
													}
												}
											}
										}
									}
									JOINT LeftForeArmEnd
									{
										OFFSET 0.000000 0.000000 0.000000
										CHANNELS 3 Zrotation Yrotation Xrotation
										End Site
										{
											OFFSET 0.000000 0.000000 0.000000
										}
									}
								}
								JOINT LeftArmEnd
								{
									OFFSET 0.000000 0.000000 0.000000
									CHANNELS 3 Zrotation Yrotation Xrotation
									End Site
									{
										OFFSET 0.000000 0.000000 0.000000
									}
								}
							}
						}
					}
				}
			}
		}
	}
	JOINT RightUpLeg
	{
		OFFSET -11.289943 0.000000 0.000000
		CHANNELS 3 Zrotation Yrotation Xrotation
		JOINT RightLeg
		{
			OFFSET 0.000000 -38.200325 0.000000
			CHANNELS 3 Zrotation Yrotation Xrotation
			JOINT RightFoot
			{
				OFFSET -0.000000 -39.900856 -0.000000
				CHANNELS 3 Zrotation Yrotation Xrotation
				JOINT RightToeBase
				{
					OFFSET 0.000000 0.000000 15.261641
					CHANNELS 3 Zrotation Yrotation Xrotation
					JOINT RightToeBaseEnd
					{
						OFFSET 0.000000 0.000000 7.370709
						CHANNELS 3 Zrotation Yrotation Xrotation
						End Site
						{
							OFFSET 0.000000 0.000000 0.000000
						}
					}
				}
				JOINT RightLegEnd
				{
					OFFSET 0.000000 0.000000 0.000000
					CHANNELS 3 Zrotation Yrotation Xrotation
					End Site
					{
						OFFSET 0.000000 0.000000 0.000000
					}
				}
			}
			JOINT RightUpLegEnd
			{
				OFFSET 0.000000 0.000000 0.000000
				CHANNELS 3 Zrotation Yrotation Xrotation
				End Site
				{
					OFFSET 0.000000 0.000000 0.000000
				}
			}
		}
	}
	JOINT LeftUpLeg
	{
		OFFSET 11.315661 -0.000000 0.000000
		CHANNELS 3 Zrotation Yrotation Xrotation
		JOINT LeftLeg
		{
			OFFSET -0.000000 -38.200325 -0.000000
			CHANNELS 3 Zrotation Yrotation Xrotation
			JOINT LeftFoot
			{
				OFFSET 0.000000 -39.900856 -0.000000
				CHANNELS 3 Zrotation Yrotation Xrotation
				JOINT LeftToeBase
				{
					OFFSET -0.000000 -0.000000 15.261641
					CHANNELS 3 Zrotation Yrotation Xrotation
					JOINT LeftToeBaseEnd
					{
						OFFSET 0.000000 -0.000000 7.539996
						CHANNELS 3 Zrotation Yrotation Xrotation
						End Site
						{
							OFFSET 0.000000 0.000000 0.000000
						}
					}
				}
				JOINT LeftLegEnd
				{
					OFFSET 0.000000 0.000000 0.000000
					CHANNELS 3 Zrotation Yrotation Xrotation
					End Site
					{
						OFFSET 0.000000 0.000000 0.000000
					}
				}
			}
			JOINT LeftUpLegEnd
			{
				OFFSET 0.000000 0.000000 0.000000
				CHANNELS 3 Zrotation Yrotation Xrotation
				End Site
				{
					OFFSET 0.000000 0.000000 0.000000
				}
			}
		}
	}
}
MOTION
Frames: 4
Frame Time: 0.016667
0.501472 88.775650 2.973778 -0.135640 -1.120717 -11.002892 0.919052 0.165042 6.933802 -1.114209 0.388917 2.860187 0.258269 -0.826310 4.922701 -1.454272 0.205478 5.235661 1.172973 0.053476 6.319965 0.311323 0.242696 -2.492892 -0.294379 -1.097348 -20.618156 0.000000 0.000000 0.000000 92.153496 -0.538749 8.654470 67.721672 -18.616840 -0.495061 -0.681873 19.452402 67.227913 -3.717627 9.642168 -1.937492 17.076319 31.042870 64.818481 -5.357768 -6.801810 -12.166698 -3.908152 -4.476437 -8.255862 0.000000 0.000000 0.000000 -8.765604 -7.304785 10.224115 0.500710 0.482200 0.716818 -0.009644 0.050026 0.770956 0.000000 0.000000 0.000000 -8.099682 -1.998565 5.463738 -0.817080 0.502690 0.250447 -0.081420 0.003413 0.234649 0.000000 0.000000 0.000000 -5.961899 5.570781 -0.536956 -0.351361 -0.983606 -0.493961 -0.307801 -0.005707 -0.330990 0.000000 0.000000 0.000000 -5.627249 13.718856 -7.248864 0.235873 -1.874722 -1.356517 0.197582 0.061740 -1.085165 0.000000 0.000000 0.000000 0.000000 0.000000 0.000000 0.000000 0.000000 0.000000 -89.362679 0.366878 3.663456 -72.105873 9.173784 -8.227705 -0.125025 -14.502595 78.376259 -3.427105 -15.799692 -4.868526 -15.686883 -31.547443 66.315399 3.735710 3.955902 -7.580370 2.570356 2.732621 -5.329550 0.000000 0.000000 0.000000 12.739147 -11.234752 17.048752 -0.528743 0.556657 -0.346269 -0.528583 0.095559 -0.409166 0.000000 0.000000 0.000000 11.717368 -5.662380 10.386108 -0.608721 0.525430 -0.193892 -0.967601 0.027863 -0.160611 0.000000 0.000000 0.000000 6.732432 3.237871 1.980397 -2.696740 -1.023919 0.418838 -2.814794 -0.023985 0.327509 0.000000 0.000000 0.000000 -0.285062 13.441903 -7.241997 -5.462177 -1.941834 1.641641 -4.986945 0.093903 1.456521 0.000000 0.000000 0.000000 0.000000 0.000000 0.000000 0.000000 0.000000 0.000000 -1.022432 -9.472878 15.077107 -0.067047 -0.670376 5.027280 -2.696821 -7.640779 17.559156 -0.803261 0.822563 -18.677784 0.000000 0.000000 0.000000 0.000000 0.000000 0.000000 0.000000 0.000000 0.000000 -1.065916 -5.747741 9.727295 0.085036 0.363625 10.433478 3.624865 -1.572702 16.736702 0.209714 -0.414228 -21.177158 0.000000 0.000000 0.000000 0.000000 0.000000 0.000000 0.000000 0.000000 0.000000 
0.502700 88.778999 2.975104 -0.129940 -1.158208 -11.010630 0.937010 0.162069 6.947463 -1.146010 0.395597 2.847679 0.287014 -0.844339 4.945940 -1.457191 0.204518 5.251112 1.069282 0.141500 6.325865 0.320375 0.300714 -2.483201 -0.316174 -1.111643 -20.631969 0.000000 0.000000 0.000000 92.105515 -0.541666 8.616277 67.776443 -18.451031 -0.671766 -0.691917 19.554882 67.478546 -3.563588 9.949756 -1.751490 17.099733 31.032595 64.793526 -5.393200 -6.845277 -12.244850 -3.932335 -4.504941 -8.311057 0.000000 0.000000 0.000000 -8.601926 -7.330742 10.252308 0.500021 0.485120 0.717809 -0.008989 0.052741 0.772122 0.000000 0.000000 0.000000 -7.917543 -2.027252 5.484674 -0.816290 0.504559 0.248735 -0.067825 0.004880 0.234029 0.000000 0.000000 0.000000 -5.711830 5.532949 -0.533654 -0.308408 -0.987338 -0.488630 -0.272570 -0.008252 -0.326589 0.000000 0.000000 0.000000 -5.321343 13.689004 -7.262363 0.320620 -1.886070 -1.328200 0.272927 0.052351 -1.061055 0.000000 0.000000 0.000000 0.000000 0.000000 0.000000 0.000000 0.000000 0.000000 -89.327034 0.367759 3.581293 -72.047531 8.782652 -8.368419 -0.134359 -14.559255 78.744850 -3.068954 -15.549570 -4.676700 -15.702970 -31.540592 66.296875 3.762330 3.986007 -7.638549 2.588495 2.755179 -5.368650 0.000000 0.000000 0.000000 12.595806 -11.213031 17.096069 -0.530447 0.558863 -0.340581 -0.531398 0.098611 -0.404305 0.000000 0.000000 0.000000 11.579118 -5.640205 10.430221 -0.626402 0.527280 -0.190990 -0.983036 0.029484 -0.158633 0.000000 0.000000 0.000000 6.558847 3.270887 2.011927 -2.774903 -1.027194 0.417420 -2.888865 -0.025644 0.325526 0.000000 0.000000 0.000000 -0.475344 13.495111 -7.226118 -5.581272 -1.949059 1.631931 -5.099266 0.088350 1.448883 0.000000 0.000000 0.000000 0.000000 0.000000 0.000000 0.000000 0.000000 0.000000 -1.024793 -9.465214 15.059544 -0.066533 -0.669877 5.048118 -2.716628 -7.596688 17.557775 -0.801082 0.823262 -18.681513 0.000000 0.000000 0.000000 0.000000 0.000000 0.000000 0.000000 0.000000 0.000000 -1.046525 -5.725652 9.730786 0.084912 0.362113 10.448481 3.611526 -1.547237 16.748056 0.209946 -0.412855 -21.198267 0.000000 0.000000 0.000000 0.000000 0.000000 0.000000 0.000000 0.000000 0.000000 
0.504933 88.782669 2.976018 -0.126849 -1.196214 -11.012193 0.957956 0.158527 6.955915 -1.178327 0.402000 2.831773 0.317072 -0.858442 4.965180 -1.459282 0.205831 5.263450 0.965706 0.228888 6.333425 0.327975 0.357562 -2.474422 -0.336792 -1.124378 -20.649740 0.000000 0.000000 0.000000 92.047630 -0.542826 8.577033 67.837723 -18.258659 -0.855357 -0.700481 19.669853 67.705788 -3.483563 10.224185 -1.576307 17.118778 31.023981 64.772499 -5.422853 -6.883499 -12.310895 -3.952677 -4.529002 -8.358116 0.000000 0.000000 0.000000 -8.492149 -7.349778 10.299053 0.497695 0.488154 0.718494 -0.009539 0.055448 0.772872 0.000000 0.000000 0.000000 -7.788445 -2.047981 5.517413 -0.814901 0.506467 0.246970 -0.054441 0.006273 0.233351 0.000000 0.000000 0.000000 -5.519692 5.505603 -0.525507 -0.263817 -0.991298 -0.483260 -0.236440 -0.010892 -0.322481 0.000000 0.000000 0.000000 -5.071796 13.670276 -7.275229 0.406757 -1.897739 -1.301612 0.349630 0.042954 -1.037990 0.000000 0.000000 0.000000 0.000000 0.000000 0.000000 0.000000 0.000000 0.000000 -89.286629 0.370067 3.498243 -71.960266 8.417666 -8.495659 -0.138090 -14.616349 79.123505 -2.713367 -15.247302 -4.482088 -15.739091 -31.525864 66.255737 3.816147 4.056738 -7.763671 2.626592 2.804214 -5.454456 0.000000 0.000000 0.000000 12.290314 -11.165653 17.091829 -0.548332 0.560003 -0.338900 -0.549149 0.100484 -0.402812 0.000000 0.000000 0.000000 11.283321 -5.592134 10.434936 -0.664281 0.528524 -0.189695 -1.018389 0.030597 -0.157971 0.000000 0.000000 0.000000 6.228674 3.331520 2.022896 -2.887916 -1.029607 0.419340 -2.997324 -0.026585 0.325949 0.000000 0.000000 0.000000 -0.797874 13.570261 -7.207335 -5.739439 -1.953992 1.631677 -5.250380 0.084820 1.448531 0.000000 0.000000 0.000000 0.000000 0.000000 0.000000 0.000000 0.000000 0.000000 -1.025563 -9.457995 15.041061 -0.066135 -0.669524 5.063167 -2.736111 -7.545797 17.565086 -0.798526 0.823562 -18.685982 0.000000 0.000000 0.000000 0.000000 0.000000 0.000000 0.000000 0.000000 0.000000 -1.028549 -5.708109 9.727861 0.084844 0.360815 10.463334 3.602804 -1.521954 16.758736 0.210482 -0.411906 -21.216829 0.000000 0.000000 0.000000 0.000000 0.000000 0.000000 0.000000 0.000000 0.000000 
0.508455 88.785858 2.976649 -0.126510 -1.234152 -11.009214 0.982177 0.154870 6.959589 -1.209755 0.408165 2.812089 0.346480 -0.866766 4.981041 -1.461070 0.210497 5.271954 0.867727 0.314647 6.350130 0.334208 0.413460 -2.463274 -0.355739 -1.134939 -20.673338 0.000000 0.000000 0.000000 91.981926 -0.541559 8.536169 67.906013 -18.030104 -1.042750 -0.706218 19.797367 67.895508 -3.473197 10.462298 -1.418417 17.132294 31.017302 64.756653 -5.445629 -6.914009 -12.361431 -3.968226 -4.546978 -8.394221 0.000000 0.000000 0.000000 -8.444220 -7.360336 10.366550 0.489711 0.490799 0.719753 -0.015718 0.057636 0.773789 0.000000 0.000000 0.000000 -7.718528 -2.059577 5.563165 -0.816572 0.508137 0.245453 -0.045570 0.007415 0.232859 0.000000 0.000000 0.000000 -5.389122 5.489224 -0.511015 -0.222134 -0.995095 -0.478152 -0.203733 -0.013388 -0.318844 0.000000 0.000000 0.000000 -4.881269 13.661889 -7.286234 0.490993 -1.908750 -1.277571 0.424056 0.034352 -1.016453 0.000000 0.000000 0.000000 0.000000 0.000000 0.000000 0.000000 0.000000 0.000000 -89.245300 0.373356 3.413683 -71.844711 8.076000 -8.598091 -0.135674 -14.672147 79.512093 -2.360114 -14.915256 -4.288115 -15.794614 -31.503778 66.193237 3.895400 4.166540 -7.952025 2.683576 2.878598 -5.584848 0.000000 0.000000 0.000000 11.831287 -11.093724 17.035988 -0.584211 0.559701 -0.341786 -0.583893 0.100747 -0.405194 0.000000 0.000000 0.000000 10.835965 -5.519233 10.400336 -0.723833 0.529001 -0.190249 -1.075272 0.031055 -0.158798 0.000000 0.000000 0.000000 5.746003 3.419129 2.012933 -3.035587 -1.030844 0.424772 -3.139860 -0.026582 0.328969 0.000000 0.000000 0.000000 -1.252168 13.666322 -7.186542 -5.935984 -1.955689 1.641649 -5.439944 0.084042 1.456042 0.000000 0.000000 0.000000 0.000000 0.000000 0.000000 0.000000 0.000000 0.000000 -1.024004 -9.453237 15.021325 -0.065858 -0.669287 5.074121 -2.756442 -7.486674 17.579815 -0.795211 0.823366 -18.690338 0.000000 0.000000 0.000000 0.000000 0.000000 0.000000 0.000000 0.000000 0.000000 -1.010337 -5.692489 9.722055 0.084793 0.359745 10.476220 3.596935 -1.495788 16.766891 0.211465 -0.411355 -21.231504 0.000000 0.000000 0.000000 0.000000 0.000000 0.000000 0.000000 0.000000 0.000000 
